<svg width="12" height="14" viewBox="0 0 12 14" fill="none" xmlns="http://www.w3.org/2000/svg">
<path d="M6.82567 13.1687L6.82566 13.1687L6.82305 13.171C6.59656 13.3731 6.30359 13.4849 6 13.4849C5.69641 13.4849 5.40344 13.3731 5.17695 13.171L5.17423 13.1686C4.31514 12.4129 3.13281 11.2721 2.16916 9.9768C1.19497 8.66734 0.5 7.27352 0.5 6C0.5 4.54131 1.07946 3.14236 2.11091 2.11091C3.14236 1.07946 4.54131 0.5 6 0.5C7.45869 0.5 8.85764 1.07946 9.88909 2.11091C10.9205 3.14236 11.5 4.54131 11.5 6C11.5 7.27348 10.8048 8.66728 9.83048 9.97678C8.86669 11.2721 7.68435 12.4129 6.82567 13.1687ZM4.23223 4.23223C3.76339 4.70107 3.5 5.33696 3.5 6C3.5 6.66304 3.76339 7.29893 4.23223 7.76777C4.70107 8.23661 5.33696 8.5 6 8.5C6.66304 8.5 7.29893 8.23661 7.76777 7.76777C8.23661 7.29893 8.5 6.66304 8.5 6C8.5 5.33696 8.23661 4.70107 7.76777 4.23223C7.29893 3.76339 6.66304 3.5 6 3.5C5.33696 3.5 4.70107 3.76339 4.23223 4.23223Z" fill="white" stroke="#22C7B8"/>
</svg>
