<svg id="notification" xmlns="http://www.w3.org/2000/svg" width="21.613" height="23.578" viewBox="0 0 21.613 23.578">
  <path id="Path_144" data-name="Path 144" d="M137.016,420.421a3.689,3.689,0,0,1-3.684-3.684.737.737,0,0,1,1.474,0,2.21,2.21,0,1,0,4.421,0,.737.737,0,0,1,1.474,0A3.689,3.689,0,0,1,137.016,420.421Zm0,0" transform="translate(-127.192 -396.843)" fill="#404040"/>
  <path id="Path_145" data-name="Path 145" d="M17.929,81.684H1.719A1.72,1.72,0,0,1,.6,78.658.68.68,0,0,1,.68,78.6a6.6,6.6,0,0,0,2.267-4.981V70.877A6.885,6.885,0,0,1,9.824,64a2.96,2.96,0,0,1,.484.029.736.736,0,1,1-.242,1.453,1.547,1.547,0,0,0-.243-.009,5.41,5.41,0,0,0-5.4,5.4v2.741a8.08,8.08,0,0,1-2.852,6.161c-.015.012-.028.023-.043.033a.243.243,0,0,0-.052.152.248.248,0,0,0,.246.246h16.21a.248.248,0,0,0,.246-.246.235.235,0,0,0-.053-.152l-.042-.033a8.078,8.078,0,0,1-2.852-6.161V72.547a.737.737,0,1,1,1.474,0v1.071a6.6,6.6,0,0,0,2.27,4.984.716.716,0,0,1,.076.057,1.719,1.719,0,0,1-1.118,3.025Zm0,0" transform="translate(0 -61.053)" fill="#404040"/>
  <path id="Path_146" data-name="Path 146" d="M260.912,9.824a4.912,4.912,0,1,1,4.912-4.912A4.918,4.918,0,0,1,260.912,9.824Zm0-8.35a3.438,3.438,0,1,0,3.438,3.439,3.442,3.442,0,0,0-3.438-3.439Zm0,0" transform="translate(-244.211)" fill="#22c7b8"/>
</svg>
