<svg width="20" height="20" viewBox="0 0 20 20" fill="none" xmlns="http://www.w3.org/2000/svg">
<path d="M17 2H15V1C15 0.734784 14.8946 0.48043 14.7071 0.292893C14.5196 0.105357 14.2652 0 14 0C13.7348 0 13.4804 0.105357 13.2929 0.292893C13.1054 0.48043 13 0.734784 13 1V2H7V1C7 0.734784 6.89464 0.48043 6.70711 0.292893C6.51957 0.105357 6.26522 0 6 0C5.73478 0 5.48043 0.105357 5.29289 0.292893C5.10536 0.48043 5 0.734784 5 1V2H3C2.20435 2 1.44129 2.31607 0.87868 2.87868C0.316071 3.44129 0 4.20435 0 5V17C0 17.7956 0.316071 18.5587 0.87868 19.1213C1.44129 19.6839 2.20435 20 3 20H17C17.7956 20 18.5587 19.6839 19.1213 19.1213C19.6839 18.5587 20 17.7956 20 17V5C20 4.20435 19.6839 3.44129 19.1213 2.87868C18.5587 2.31607 17.7956 2 17 2ZM18 17C18 17.2652 17.8946 17.5196 17.7071 17.7071C17.5196 17.8946 17.2652 18 17 18H3C2.73478 18 2.48043 17.8946 2.29289 17.7071C2.10536 17.5196 2 17.2652 2 17V10H18V17ZM18 8H2V5C2 4.73478 2.10536 4.48043 2.29289 4.29289C2.48043 4.10536 2.73478 4 3 4H5V5C5 5.26522 5.10536 5.51957 5.29289 5.70711C5.48043 5.89464 5.73478 6 6 6C6.26522 6 6.51957 5.89464 6.70711 5.70711C6.89464 5.51957 7 5.26522 7 5V4H13V5C13 5.26522 13.1054 5.51957 13.2929 5.70711C13.4804 5.89464 13.7348 6 14 6C14.2652 6 14.5196 5.89464 14.7071 5.70711C14.8946 5.51957 15 5.26522 15 5V4H17C17.2652 4 17.5196 4.10536 17.7071 4.29289C17.8946 4.48043 18 4.73478 18 5V8Z" fill="#22C7B8"/>
<path d="M6.69638 15.0682C6.48615 15.0682 6.30575 14.9929 6.15518 14.8423C6.00462 14.6918 5.92933 14.5114 5.92933 14.3011C5.92933 14.0909 6.00462 13.9105 6.15518 13.7599C6.30575 13.6094 6.48615 13.5341 6.69638 13.5341C6.90661 13.5341 7.087 13.6094 7.23757 13.7599C7.38814 13.9105 7.46342 14.0909 7.46342 14.3011C7.46342 14.4403 7.42791 14.5682 7.35689 14.6847C7.28871 14.8011 7.19638 14.8949 7.0799 14.9659C6.96626 15.0341 6.83842 15.0682 6.69638 15.0682ZM10.0011 15.0682C9.79084 15.0682 9.61044 14.9929 9.45987 14.8423C9.3093 14.6918 9.23402 14.5114 9.23402 14.3011C9.23402 14.0909 9.3093 13.9105 9.45987 13.7599C9.61044 13.6094 9.79084 13.5341 10.0011 13.5341C10.2113 13.5341 10.3917 13.6094 10.5423 13.7599C10.6928 13.9105 10.7681 14.0909 10.7681 14.3011C10.7681 14.4403 10.7326 14.5682 10.6616 14.6847C10.5934 14.8011 10.5011 14.8949 10.3846 14.9659C10.271 15.0341 10.1431 15.0682 10.0011 15.0682ZM13.3058 15.0682C13.0955 15.0682 12.9151 14.9929 12.7646 14.8423C12.614 14.6918 12.5387 14.5114 12.5387 14.3011C12.5387 14.0909 12.614 13.9105 12.7646 13.7599C12.9151 13.6094 13.0955 13.5341 13.3058 13.5341C13.516 13.5341 13.6964 13.6094 13.8469 13.7599C13.9975 13.9105 14.0728 14.0909 14.0728 14.3011C14.0728 14.4403 14.0373 14.5682 13.9663 14.6847C13.8981 14.8011 13.8058 14.8949 13.6893 14.9659C13.5756 15.0341 13.4478 15.0682 13.3058 15.0682Z" fill="#22C7B8"/>
</svg>
