<svg width="14" height="11" viewBox="0 0 14 11" fill="none" xmlns="http://www.w3.org/2000/svg">
<path d="M1 1V9C1 9.26522 1.10536 9.51957 1.29289 9.70711C1.48043 9.89464 1.73478 10 2 10H12C12.2652 10 12.5196 9.89464 12.7071 9.70711C12.8946 9.51957 13 9.26522 13 9V1H1ZM1 0H13C13.2652 0 13.5196 0.105357 13.7071 0.292893C13.8946 0.48043 14 0.734784 14 1V9C14 9.53043 13.7893 10.0391 13.4142 10.4142C13.0391 10.7893 12.5304 11 12 11H2C1.46957 11 0.960859 10.7893 0.585786 10.4142C0.210714 10.0391 0 9.53043 0 9V1C0 0.734784 0.105357 0.48043 0.292893 0.292893C0.48043 0.105357 0.734784 0 1 0Z" fill="#22C7B8"/>
<path d="M13.125 1L9.258 5.42C8.97642 5.74189 8.62927 5.99986 8.23984 6.17661C7.8504 6.35336 7.42767 6.44479 7 6.44479C6.57233 6.44479 6.1496 6.35336 5.76016 6.17661C5.37073 5.99986 5.02358 5.74189 4.742 5.42L0.875 1H13.125ZM2.204 1L5.494 4.761C5.68172 4.97565 5.91317 5.14768 6.17283 5.26554C6.43248 5.38341 6.71434 5.44439 6.9995 5.44439C7.28466 5.44439 7.56651 5.38341 7.82617 5.26554C8.08583 5.14768 8.31728 4.97565 8.505 4.761L11.796 1H2.204Z" fill="#22C7B8"/>
</svg>
