<svg width="17" height="22" viewBox="0 0 17 22" fill="none" xmlns="http://www.w3.org/2000/svg">
<path d="M10.5 12.2505C10.5001 11.2442 10.211 10.259 9.66702 9.41233C9.12308 8.56565 8.34726 7.89314 7.43194 7.4749C6.51663 7.05665 5.50038 6.91029 4.50424 7.05324C3.5081 7.19619 2.57403 7.62243 1.81327 8.2812C1.05251 8.93997 0.497112 9.80352 0.213224 10.769C-0.0706637 11.7345 -0.0710825 12.7612 0.212018 13.7269C0.495117 14.6926 1.04981 15.5566 1.81003 16.216C2.57025 16.8754 3.50397 17.3024 4.5 17.4462V18.5005H2.75C2.55109 18.5005 2.36032 18.5795 2.21967 18.7202C2.07902 18.8609 2 19.0516 2 19.2505C2 19.4494 2.07902 19.6402 2.21967 19.7809C2.36032 19.9215 2.55109 20.0005 2.75 20.0005H4.5V21.2505C4.5 21.4494 4.57902 21.6402 4.71967 21.7809C4.86032 21.9215 5.05109 22.0005 5.25 22.0005C5.44891 22.0005 5.63968 21.9215 5.78033 21.7809C5.92098 21.6402 6 21.4494 6 21.2505V20.0005H7.75C7.94891 20.0005 8.13968 19.9215 8.28033 19.7809C8.42098 19.6402 8.5 19.4494 8.5 19.2505C8.5 19.0516 8.42098 18.8609 8.28033 18.7202C8.13968 18.5795 7.94891 18.5005 7.75 18.5005H6V17.4462C7.24876 17.2643 8.39046 16.6394 9.21663 15.6856C10.0428 14.7317 10.4983 13.5125 10.5 12.2505ZM1.5 12.2505C1.5 11.5089 1.71993 10.7838 2.13199 10.1671C2.54404 9.55046 3.12971 9.06981 3.81494 8.78598C4.50016 8.50215 5.25416 8.42789 5.98159 8.57259C6.70902 8.71728 7.3772 9.07443 7.90165 9.59888C8.4261 10.1233 8.78325 10.7915 8.92795 11.5189C9.07264 12.2464 8.99838 13.0004 8.71455 13.6856C8.43072 14.3708 7.95007 14.9565 7.33339 15.3685C6.7167 15.7806 5.99168 16.0005 5.25 16.0005C4.25579 15.9994 3.30264 15.6039 2.59963 14.9009C1.89662 14.1979 1.50116 13.2447 1.5 12.2505Z" fill="#22C7B8"/>
<path d="M16.2504 0H13.2504C13.0514 0 12.8607 0.0790177 12.72 0.21967C12.5794 0.360322 12.5004 0.551088 12.5004 0.75C12.5004 0.948912 12.5794 1.13968 12.72 1.28033C12.8607 1.42098 13.0514 1.5 13.2504 1.5H14.4379L12.3929 3.54625C11.3297 2.75174 10.0052 2.38936 8.68568 2.53202C7.36618 2.67468 6.14967 3.3118 5.28095 4.31517C4.41222 5.31854 3.95575 6.6137 4.00339 7.94003C4.05102 9.26637 4.59923 10.5254 5.53769 11.4639C6.47616 12.4024 7.73523 12.9506 9.06157 12.9982C10.3879 13.0459 11.6831 12.5894 12.6864 11.7207C13.6898 10.8519 14.3269 9.63543 14.4696 8.31593C14.6122 6.99642 14.2499 5.67186 13.4554 4.60875L15.5004 2.5625V3.75C15.5004 3.94891 15.5794 4.13968 15.72 4.28033C15.8607 4.42098 16.0514 4.5 16.2504 4.5C16.4493 4.5 16.64 4.42098 16.7807 4.28033C16.9213 4.13968 17.0004 3.94891 17.0004 3.75V0.75C17.0004 0.551088 16.9213 0.360322 16.7807 0.21967C16.64 0.0790177 16.4493 0 16.2504 0ZM11.901 10.4038C11.3765 10.928 10.7083 11.285 9.9809 11.4296C9.25351 11.5742 8.49959 11.4998 7.81445 11.216C7.12932 10.9321 6.54374 10.4514 6.13175 9.83479C5.71976 9.21814 5.49987 8.49318 5.49987 7.75156C5.49987 7.00995 5.71976 6.28498 6.13175 5.66833C6.54374 5.05168 7.12932 4.57103 7.81445 4.28716C8.49959 4.00329 9.25351 3.92894 9.9809 4.07351C10.7083 4.21808 11.3765 4.57508 11.901 5.09937C12.603 5.80349 12.9973 6.75724 12.9973 7.75156C12.9973 8.74588 12.603 9.69963 11.901 10.4038Z" fill="#22C7B8"/>
</svg>
